M48
; DRILL file {KiCad (6.0.7)} date Sat Dec 28 01:02:48 2024
; FORMAT={-:-/ absolute / inch / decimal}
; #@! TF.CreationDate,2024-12-28T01:02:48-06:00
; #@! TF.GenerationSoftware,Kicad,Pcbnew,(6.0.7)
; #@! TF.FileFunction,Plated,1,2,PTH
FMAT,2
INCH
; #@! TA.AperFunction,Plated,PTH,ViaDrill
T1C0.0157
; #@! TA.AperFunction,Plated,PTH,ComponentDrill
T2C0.0315
; #@! TA.AperFunction,Plated,PTH,ComponentDrill
T3C0.0320
; #@! TA.AperFunction,Plated,PTH,ComponentDrill
T4C0.0354
; #@! TA.AperFunction,Plated,PTH,ComponentDrill
T5C0.0394
; #@! TA.AperFunction,Plated,PTH,ComponentDrill
T6C0.0433
; #@! TA.AperFunction,Plated,PTH,ComponentDrill
T7C0.1378
%
G90
G05
T1
X4.6125Y-5.625
X4.675Y-4.475
X4.9584Y-5.3459
X5.325Y-7.2125
X5.325Y-7.4
X5.4625Y-6.225
X5.5875Y-6.675
X5.6Y-5.0375
X5.9875Y-5.725
X6.3Y-6.875
X6.3625Y-4.8375
X6.3625Y-5.3375
X6.3625Y-6.4
X6.4625Y-6.1875
X6.55Y-5.375
X6.631Y-6.244
X6.6782Y-7.3282
X6.6875Y-5.9
X6.7375Y-5.425
X6.775Y-7.2125
X6.825Y-5.725
X6.8625Y-5.8625
X7.0Y-4.8375
X7.05Y-5.375
X7.2Y-5.9
X7.39Y-5.3475
X7.5125Y-5.8625
X7.575Y-4.0875
X7.775Y-4.225
X7.85Y-4.4875
X7.9Y-4.4875
X7.9Y-5.35
X7.9125Y-5.9
X7.9125Y-6.325
X7.925Y-4.225
X7.95Y-5.975
X7.975Y-4.4625
X7.975Y-4.875
X8.025Y-4.1875
X8.025Y-4.6625
X8.025Y-5.425
X8.05Y-6.925
X8.075Y-4.05
X8.075Y-4.4625
X8.075Y-6.4
X8.125Y-4.15
X8.125Y-4.6625
X8.175Y-4.4625
X8.2Y-4.6875
X8.2875Y-4.7625
X8.3Y-4.575
X8.333Y-5.9295
X8.3875Y-5.9875
X8.6Y-4.0875
X8.6Y-4.6875
X8.6479Y-4.1229
X8.65Y-4.4625
X8.6625Y-5.9
X8.7Y-4.65
X8.75Y-4.65
X8.8Y-4.65
X8.8Y-5.55
X8.85Y-4.6625
X8.869Y-6.6935
X8.9Y-4.6625
X8.95Y-4.6625
X8.9761Y-5.0989
X9.025Y-4.375
X9.025Y-4.825
X9.0332Y-5.0418
X9.125Y-5.425
X9.325Y-4.075
X9.3625Y-4.125
X9.6875Y-5.3875
X9.8125Y-5.35
X9.95Y-5.725
X10.063Y-6.3995
X10.063Y-6.7495
X10.075Y-4.5125
X10.3375Y-5.3875
X10.3875Y-4.4625
X10.4613Y-5.8637
X10.7125Y-4.2875
X10.9125Y-5.3625
X10.9375Y-4.225
X10.975Y-4.825
X11.0Y-4.85
X11.0125Y-4.2875
X11.025Y-4.875
X11.05Y-4.898
X11.075Y-4.3875
X11.075Y-4.925
X11.175Y-4.1875
X11.3875Y-4.175
X11.475Y-4.6625
X11.4875Y-4.3875
X11.55Y-4.85
X11.5625Y-4.8875
X11.575Y-4.5125
X11.7125Y-6.3
T2
X6.7725Y-7.1
X6.7725Y-7.4
X6.8925Y-7.1
X6.8925Y-7.4
X7.0125Y-7.1
X7.0125Y-7.4
T3
X7.675Y-4.3125
X7.775Y-4.3125
X7.875Y-4.3125
X7.975Y-4.3125
X8.075Y-4.3125
X8.175Y-4.3125
T4
X4.5123Y-6.0
X4.5248Y-6.8375
X4.6123Y-6.0
X4.6248Y-6.8375
T5
X11.0375Y-3.8882
X11.0375Y-3.9882
X11.1375Y-3.8882
X11.1375Y-3.9882
X11.2375Y-3.8882
X11.2375Y-3.9882
X11.3375Y-3.8882
X11.3375Y-3.9882
X11.4375Y-3.8882
X11.4375Y-3.9882
X11.5375Y-3.8882
X11.5375Y-3.9882
X11.6375Y-3.8882
X11.6375Y-3.9882
X11.7375Y-3.8882
X11.7375Y-3.9882
T6
X4.7595Y-5.0989
X4.7595Y-5.2761
X4.7625Y-4.5864
X4.7625Y-4.7636
X4.8845Y-5.6114
X4.8845Y-5.7886
X5.0095Y-6.1239
X5.0095Y-6.3011
X5.0155Y-5.0989
X5.0155Y-5.2761
X5.0184Y-4.5864
X5.0184Y-4.7636
X5.1375Y-6.6364
X5.1375Y-6.8136
X5.1375Y-7.15
X5.1375Y-7.3272
X5.1405Y-5.6114
X5.1405Y-5.7886
X5.2655Y-6.1239
X5.2655Y-6.3011
X5.272Y-4.5864
X5.272Y-4.7636
X5.272Y-5.0989
X5.272Y-5.2761
X5.3934Y-6.6364
X5.3934Y-6.8136
X5.3934Y-7.15
X5.3934Y-7.3272
X5.397Y-5.6114
X5.397Y-5.7886
X5.522Y-6.1239
X5.522Y-6.3011
X5.528Y-4.5864
X5.528Y-4.7636
X5.528Y-5.0989
X5.528Y-5.2761
X5.65Y-6.6364
X5.65Y-6.8136
X5.65Y-7.15
X5.65Y-7.3272
X5.653Y-5.6114
X5.653Y-5.7886
X5.778Y-6.1239
X5.778Y-6.3011
X5.7845Y-4.5864
X5.7845Y-4.7636
X5.7845Y-5.0989
X5.7845Y-5.2761
X5.9059Y-6.6364
X5.9059Y-6.8136
X5.9059Y-7.15
X5.9059Y-7.3272
X5.9095Y-5.6114
X5.9095Y-5.7886
X6.0345Y-6.1239
X6.0345Y-6.3011
X6.0405Y-4.5864
X6.0405Y-4.7636
X6.0405Y-5.0989
X6.0405Y-5.2761
X6.1595Y-7.1489
X6.1595Y-7.3261
X6.1625Y-6.6364
X6.1625Y-6.8136
X6.1655Y-5.6114
X6.1655Y-5.7886
X6.2905Y-6.1239
X6.2905Y-6.3011
X6.297Y-4.5864
X6.297Y-4.7636
X6.297Y-5.0989
X6.297Y-5.2761
X6.4155Y-7.1489
X6.4155Y-7.3261
X6.4184Y-6.6364
X6.4184Y-6.8136
X6.422Y-5.6114
X6.422Y-5.7886
X6.547Y-6.1239
X6.547Y-6.3011
X6.553Y-4.5864
X6.553Y-4.7636
X6.553Y-5.0989
X6.553Y-5.2761
X6.675Y-6.6364
X6.675Y-6.8136
X6.678Y-5.6114
X6.678Y-5.7886
X6.803Y-6.1239
X6.803Y-6.3011
X6.8095Y-4.5864
X6.8095Y-4.7636
X6.8095Y-5.0989
X6.8095Y-5.2761
X6.9309Y-6.6364
X6.9309Y-6.8136
X6.9345Y-5.6114
X6.9345Y-5.7886
X7.0595Y-6.1239
X7.0595Y-6.3011
X7.0655Y-4.5864
X7.0655Y-4.7636
X7.0655Y-5.0989
X7.0655Y-5.2761
X7.1875Y-6.6364
X7.1875Y-6.8136
X7.1905Y-5.6114
X7.1905Y-5.7886
X7.3155Y-6.1239
X7.3155Y-6.3011
X7.322Y-4.5864
X7.322Y-4.7636
X7.322Y-5.0989
X7.322Y-5.2761
X7.4434Y-6.6364
X7.4434Y-6.8136
X7.447Y-5.6114
X7.447Y-5.7886
X7.572Y-6.1239
X7.572Y-6.3011
X7.578Y-4.5864
X7.578Y-4.7636
X7.578Y-5.0989
X7.578Y-5.2761
X7.7Y-6.6364
X7.7Y-6.8136
X7.703Y-5.6114
X7.703Y-5.7886
X7.828Y-6.1239
X7.828Y-6.3011
X7.8345Y-5.0989
X7.8345Y-5.2761
X7.9559Y-6.6364
X7.9559Y-6.8136
X7.9595Y-5.6114
X7.9595Y-5.7886
X8.0845Y-6.1239
X8.0845Y-6.3011
X8.0905Y-5.0989
X8.0905Y-5.2761
X8.097Y-7.1511
X8.097Y-7.3282
X8.2125Y-6.6364
X8.2125Y-6.8136
X8.2155Y-5.6114
X8.2155Y-5.7886
X8.3405Y-6.1239
X8.3405Y-6.3011
X8.347Y-5.0989
X8.347Y-5.2761
X8.353Y-7.1511
X8.353Y-7.3282
X8.4684Y-6.6364
X8.4684Y-6.8136
X8.472Y-5.6114
X8.472Y-5.7886
X8.597Y-6.1239
X8.597Y-6.3011
X8.603Y-5.0989
X8.603Y-5.2761
X8.725Y-6.6364
X8.725Y-6.8136
X8.728Y-5.6114
X8.728Y-5.7886
X8.853Y-6.1239
X8.853Y-6.3011
X8.8595Y-5.0989
X8.8595Y-5.2761
X8.9809Y-6.6364
X8.9809Y-6.8136
X8.9845Y-5.6114
X8.9845Y-5.7886
X9.1095Y-6.1239
X9.1095Y-6.3011
X9.1155Y-5.0989
X9.1155Y-5.2761
X9.2375Y-6.6364
X9.2375Y-6.8136
X9.2405Y-5.6114
X9.2405Y-5.7886
X9.3655Y-6.1239
X9.3655Y-6.3011
X9.372Y-4.5864
X9.372Y-4.7636
X9.372Y-5.0989
X9.372Y-5.2761
X9.4934Y-6.6364
X9.4934Y-6.8136
X9.497Y-5.6114
X9.497Y-5.7886
X9.622Y-6.1239
X9.622Y-6.3011
X9.628Y-4.5864
X9.628Y-4.7636
X9.628Y-5.0989
X9.628Y-5.2761
X9.747Y-7.15
X9.747Y-7.3272
X9.75Y-6.6364
X9.75Y-6.8136
X9.753Y-5.6114
X9.753Y-5.7886
X9.878Y-6.1239
X9.878Y-6.3011
X9.8845Y-4.5864
X9.8845Y-4.7636
X9.8845Y-5.0989
X9.8845Y-5.2761
X10.003Y-7.15
X10.003Y-7.3272
X10.0059Y-6.6364
X10.0059Y-6.8136
X10.0095Y-5.6114
X10.0095Y-5.7886
X10.1345Y-6.1239
X10.1345Y-6.3011
X10.1405Y-4.5864
X10.1405Y-4.7636
X10.1405Y-5.0989
X10.1405Y-5.2761
X10.2566Y-7.1511
X10.2566Y-7.3282
X10.2625Y-6.6364
X10.2625Y-6.8136
X10.2655Y-5.6114
X10.2655Y-5.7886
X10.3905Y-6.1239
X10.3905Y-6.3011
X10.397Y-4.5864
X10.397Y-4.7636
X10.397Y-5.0989
X10.397Y-5.2761
X10.5125Y-7.1511
X10.5125Y-7.3282
X10.5184Y-6.6364
X10.5184Y-6.8136
X10.522Y-5.6114
X10.522Y-5.7886
X10.647Y-6.1239
X10.647Y-6.3011
X10.653Y-4.5864
X10.653Y-4.7636
X10.653Y-5.0989
X10.653Y-5.2761
X10.772Y-7.1489
X10.772Y-7.3261
X10.775Y-6.6364
X10.775Y-6.8136
X10.778Y-5.6114
X10.778Y-5.7886
X10.903Y-6.1239
X10.903Y-6.3011
X10.9095Y-4.5864
X10.9095Y-4.7636
X10.9095Y-5.0989
X10.9095Y-5.2761
X11.028Y-7.1489
X11.028Y-7.3261
X11.0309Y-6.6364
X11.0309Y-6.8136
X11.0345Y-5.6114
X11.0345Y-5.7886
X11.1595Y-6.1239
X11.1595Y-6.3011
X11.1655Y-4.5864
X11.1655Y-4.7636
X11.1655Y-5.0989
X11.1655Y-5.2761
X11.2845Y-7.1489
X11.2845Y-7.3261
X11.2875Y-6.6364
X11.2875Y-6.8136
X11.2905Y-5.6114
X11.2905Y-5.7886
X11.4155Y-6.1239
X11.4155Y-6.3011
X11.422Y-4.5864
X11.422Y-4.7636
X11.422Y-5.0989
X11.422Y-5.2761
X11.5405Y-7.1489
X11.5405Y-7.3261
X11.5434Y-6.6364
X11.5434Y-6.8136
X11.55Y-5.6114
X11.55Y-5.7886
X11.678Y-4.5864
X11.678Y-4.7636
X11.678Y-5.0989
X11.678Y-5.2761
X11.8059Y-5.6114
X11.8059Y-5.7886
T7
X4.4699Y-5.0128
X4.4703Y-7.3753
X11.9699Y-5.0128
X11.9703Y-7.3753
T0
M30
